<?xml version="1.0" standalone="no"?>
<!DOCTYPE svg PUBLIC "-//W3C//DTD SVG 20010904//EN"
 "http://www.w3.org/TR/2001/REC-SVG-20010904/DTD/svg10.dtd">
<svg version="1.0" xmlns="http://www.w3.org/2000/svg"
 width="4167.000000pt" height="3201.000000pt" viewBox="0 0 4167.000000 3201.000000"
 preserveAspectRatio="xMidYMid meet">
<style type="text/css">
	.st0{fill:#E6E6E6;}
	.st1{fill:#FFB8B8;}
	.st2{fill:#575A89;}
	.st3{fill:#2F2E41;}
</style>
<g transform="translate(0.000000,3201.000000) scale(0.100000,-0.100000)"
fill="#000000" stroke="none">
<path d="M31888 29171 c-264 -87 -499 -382 -837 -1050 -182 -361 -370 -775
-702 -1546 -217 -504 -407 -868 -574 -1097 -33 -46 -101 -123 -150 -173 -173
-175 -304 -199 -415 -79 -118 129 -177 386 -205 895 -33 622 -73 944 -156
1257 -67 256 -155 414 -266 479 -37 21 -59 27 -108 27 -192 0 -382 -215 -639
-724 -390 -768 -574 -1623 -553 -2555 5 -207 31 -594 40 -601 1 -1 87 27 191
61 952 316 1985 321 2936 13 1193 -386 2163 -1217 2700 -2313 145 -296 235
-544 314 -865 239 -975 134 -1967 -305 -2879 -44 -90 -78 -165 -77 -167 2 -1
75 -14 163 -28 1332 -213 2674 -88 3691 344 393 168 585 304 670 474 88 178
46 329 -147 531 -220 229 -480 340 -914 390 -71 8 -272 21 -445 30 -723 34
-1016 74 -1335 181 -473 158 -491 448 -58 905 240 252 630 563 1503 1199 415
303 917 679 1156 868 700 551 1174 1006 1406 1349 64 96 142 261 158 334 19
84 10 204 -20 264 -51 105 -171 189 -307 215 -101 20 -362 7 -508 -24 -555
-120 -1307 -453 -2605 -1152 -420 -226 -623 -309 -791 -321 -295 -22 -316 233
-64 763 141 297 310 574 796 1305 218 328 455 690 526 805 320 514 512 901
596 1203 30 108 32 127 32 271 0 153 0 156 -31 221 -41 87 -89 138 -166 180
-56 30 -73 34 -159 37 -193 8 -409 -75 -720 -279 -515 -337 -1109 -896 -2185
-2054 -391 -420 -466 -498 -603 -614 -311 -265 -487 -279 -558 -46 -15 50 -18
95 -18 270 0 243 7 298 100 830 292 1658 325 2440 119 2742 -68 99 -147 135
-309 140 -87 2 -122 -1 -167 -16z"/>
<path d="M27150 23926 c-848 -367 -1526 -926 -2014 -1661 -136 -204 -183 -287
-290 -504 -219 -446 -349 -895 -413 -1421 -24 -203 -24 -705 0 -912 120 -1013
547 -1897 1263 -2612 503 -504 1112 -879 1794 -1106 875 -292 1789 -325 2685
-98 318 80 587 180 900 333 811 396 1478 1014 1926 1785 37 63 66 117 64 118
-2 2 -75 19 -162 37 -565 118 -1116 297 -1603 519 l-140 64 -67 -86 c-87 -113
-342 -368 -464 -466 -233 -185 -560 -369 -832 -470 -242 -89 -528 -152 -796
-176 -186 -17 -535 -8 -716 20 -671 100 -1274 408 -1730 881 -675 701 -932
1672 -690 2597 172 654 600 1239 1190 1627 179 118 474 271 536 278 18 2 28
-19 79 -163 267 -762 669 -1496 1165 -2125 257 -326 618 -709 902 -958 428
-374 873 -678 1306 -893 l118 -59 19 25 c91 121 250 417 319 594 133 345 187
666 178 1051 -8 305 -48 539 -138 800 -142 413 -354 750 -674 1071 -242 243
-481 413 -790 564 -307 150 -608 240 -962 287 -181 24 -590 23 -768 -1 -230
-31 -495 -95 -668 -160 -49 -18 -69 -22 -72 -13 -44 120 -151 530 -194 737
-26 128 -67 376 -86 513 -3 26 -11 47 -18 46 -7 0 -77 -28 -157 -63z"/>
<path d="M9695 20086 c-79 -34 -154 -110 -183 -189 l-22 -58 0 -2043 c0 -2285
-6 -2101 73 -2199 89 -109 236 -151 377 -108 61 19 81 31 130 79 42 42 63 73
79 115 l21 58 -2 2067 -3 2067 -23 43 c-35 67 -98 129 -160 159 -82 40 -203
44 -287 9z"/>
<path d="M11050 20094 c-62 -20 -135 -76 -171 -132 -63 -100 -59 51 -57 -2192
l3 -2045 24 -53 c36 -81 124 -156 213 -183 174 -53 356 29 420 189 22 54 23
71 26 373 l3 315 266 255 c146 140 269 255 273 257 4 1 243 -286 531 -640 288
-353 540 -657 559 -676 118 -117 332 -120 458 -7 73 66 105 137 106 234 1 63
-4 85 -26 131 -17 33 -247 324 -583 734 -305 373 -555 680 -555 681 0 1 234
225 519 498 589 562 576 547 576 687 0 93 -26 155 -92 222 -124 126 -307 128
-453 4 -36 -31 -405 -393 -820 -805 l-755 -749 -5 1326 c-6 1468 0 1361 -68
1453 -87 118 -249 169 -392 123z"/>
<path d="M3014 19879 c-60 -23 -126 -77 -160 -131 -34 -53 -57 -149 -49 -201
18 -113 100 -217 203 -259 l57 -23 613 -3 612 -3 0 -1754 0 -1754 21 -57 c53
-141 205 -235 357 -221 147 14 265 109 306 247 14 48 16 226 16 1796 l0 1743
613 3 c710 4 669 -2 773 102 70 70 94 126 94 217 0 120 -74 235 -185 289 l-50
25 -1585 2 c-1552 2 -1586 2 -1636 -18z"/>
<path d="M7280 18863 c-797 -105 -1389 -757 -1439 -1585 -32 -541 135 -1005
488 -1359 322 -321 738 -489 1214 -489 490 0 899 157 1250 480 78 72 116 138
124 215 12 116 -60 235 -175 292 -48 24 -69 28 -137 28 -93 0 -146 -23 -236
-100 -140 -121 -336 -227 -506 -272 -91 -25 -113 -27 -303 -27 -184 -1 -214 2
-290 22 -108 30 -267 105 -347 166 -173 131 -303 336 -363 571 l-18 70 1137 5
1136 5 47 22 c63 29 134 97 166 158 61 119 29 456 -70 744 -190 552 -590 913
-1143 1031 -78 17 -143 22 -300 25 -110 2 -216 1 -235 -2z m400 -608 c95 -22
237 -88 319 -150 113 -86 218 -232 282 -391 27 -66 79 -249 79 -275 0 -5 -399
-9 -909 -9 l-909 0 13 58 c97 414 402 724 770 782 83 13 265 5 355 -15z"/>
<path d="M15270 18856 c-720 -103 -1289 -602 -1460 -1279 -43 -170 -53 -282
-47 -495 8 -282 51 -455 177 -707 197 -397 551 -702 980 -846 335 -112 665
-129 1009 -53 606 135 1086 558 1276 1127 169 505 98 1063 -190 1492 -273 406
-661 656 -1170 752 -112 21 -452 26 -575 9z m505 -624 c236 -60 454 -204 598
-397 330 -441 294 -1094 -82 -1474 -214 -216 -496 -323 -816 -308 -266 12
-492 109 -686 294 -242 231 -364 575 -330 925 28 274 124 490 300 672 156 160
340 259 564 302 104 19 347 12 452 -14z"/>
<path d="M19150 18865 c-8 -2 -49 -9 -90 -15 -219 -36 -438 -144 -600 -297
-37 -35 -70 -63 -74 -63 -3 0 -6 18 -6 40 0 109 -94 237 -207 281 -79 31 -186
31 -266 0 -69 -27 -143 -96 -177 -166 l-25 -50 -3 -1427 c-2 -1416 -2 -1427
18 -1481 81 -216 376 -286 549 -131 29 26 64 70 79 98 l27 51 6 905 c6 964 5
941 55 1095 57 172 181 336 325 428 217 139 515 155 748 41 171 -84 283 -230
343 -449 22 -79 22 -89 28 -1030 4 -639 9 -960 17 -980 23 -67 54 -114 104
-159 166 -149 442 -92 537 112 l27 57 6 920 c5 904 5 921 27 1002 80 305 258
498 529 575 100 28 320 31 425 5 268 -66 433 -259 495 -577 15 -74 18 -205 22
-1010 l6 -925 28 -57 c33 -67 90 -121 166 -157 47 -22 70 -26 142 -26 79 0 92
3 154 35 49 25 82 51 112 87 77 95 73 40 73 1108 0 605 -4 981 -11 1035 -71
578 -384 956 -896 1086 -145 36 -265 47 -452 41 -413 -14 -722 -160 -1000
-471 -35 -39 -45 -46 -55 -35 -7 8 -39 47 -71 87 -172 215 -439 363 -734 407
-82 13 -334 19 -381 10z"/>
<path d="M13691 14599 c-97 -19 -197 -104 -232 -197 -11 -30 -14 -186 -17
-800 l-3 -764 -87 83 c-128 122 -241 201 -387 274 -239 118 -445 161 -730 152
-246 -8 -433 -53 -650 -157 -515 -247 -843 -734 -905 -1339 -93 -928 423
-1679 1287 -1874 135 -30 492 -32 623 -3 307 67 564 213 783 445 l67 71 0
-108 c0 -176 39 -276 133 -341 49 -33 134 -61 187 -61 92 0 204 56 253 127 61
89 57 -71 57 2187 0 2311 7 2113 -75 2204 -49 54 -109 88 -185 102 -59 11 -58
11 -119 -1z m-1058 -1843 c196 -50 377 -157 519 -304 98 -102 143 -168 204
-297 69 -146 95 -260 101 -447 6 -173 -4 -272 -43 -405 -106 -366 -404 -656
-784 -761 -85 -24 -113 -27 -260 -27 -139 0 -179 4 -254 23 -290 73 -534 271
-675 547 -78 152 -118 309 -128 505 -29 570 283 1039 775 1165 165 43 382 43
545 1z"/>
<path d="M6060 14411 c-56 -17 -110 -53 -153 -101 -84 -93 -77 98 -77 -2104 0
-1253 4 -1974 10 -1996 49 -177 265 -276 436 -200 62 27 138 102 165 163 l24
52 0 1980 0 1980 -22 48 c-32 67 -110 141 -178 166 -57 21 -155 27 -205 12z"/>
<path d="M8735 13343 c-73 -9 -234 -47 -299 -70 -161 -58 -313 -153 -445 -279
l-88 -83 -6 84 c-8 111 -34 172 -103 234 -70 64 -130 84 -232 79 -95 -4 -156
-33 -218 -101 -80 -89 -75 32 -72 -1577 l3 -1435 23 -42 c32 -60 87 -112 151
-142 82 -38 194 -37 273 2 67 33 129 99 155 165 16 44 18 112 23 967 5 905 6
921 27 997 74 263 224 443 465 558 131 63 246 83 438 77 118 -4 173 -10 230
-27 200 -58 356 -185 443 -360 25 -52 57 -133 69 -180 22 -84 22 -94 28 -1035
5 -763 8 -957 19 -987 55 -149 233 -238 386 -193 105 30 175 95 210 194 23 65
23 1931 0 2087 -42 278 -150 511 -322 694 -102 109 -186 170 -328 240 -205
101 -392 141 -650 138 -82 0 -163 -3 -180 -5z"/>
<path d="M16041 13334 c-711 -103 -1268 -597 -1441 -1275 -64 -249 -66 -580
-5 -822 51 -201 150 -419 262 -577 87 -122 272 -307 393 -392 322 -228 709
-340 1115 -325 673 26 1256 399 1531 982 265 561 195 1258 -175 1740 -283 369
-689 604 -1160 669 -136 19 -389 19 -520 0z m467 -560 c322 -57 616 -276 772
-575 52 -100 106 -263 121 -367 19 -136 7 -385 -25 -507 -35 -135 -126 -317
-211 -422 -394 -490 -1154 -538 -1618 -103 -423 395 -479 1101 -125 1571 246
327 656 479 1086 403z"/>
<path d="M19995 13344 c-313 -46 -544 -155 -752 -357 l-93 -90 0 85 c0 105
-19 162 -73 224 -111 127 -317 142 -442 32 -60 -53 -91 -109 -105 -188 -8 -46
-10 -472 -8 -1445 l3 -1380 26 -55 c37 -80 72 -115 147 -152 59 -29 76 -33
147 -33 67 0 89 5 137 28 61 30 105 74 140 140 l23 42 6 915 c5 823 7 922 23
989 68 290 252 512 509 616 128 52 235 68 412 62 174 -6 255 -25 377 -88 145
-76 257 -204 320 -365 64 -166 61 -118 67 -1159 6 -937 6 -951 27 -995 43 -92
107 -146 210 -176 143 -41 299 29 366 165 l23 46 0 1015 c0 943 -1 1021 -18
1105 -111 546 -439 882 -977 1000 -73 16 -423 29 -495 19z"/>
<path d="M23297 13335 c-391 -64 -732 -257 -979 -554 -184 -222 -301 -469
-365 -770 -25 -116 -27 -145 -27 -361 0 -183 3 -256 17 -327 53 -278 164 -535
321 -743 85 -112 252 -270 370 -348 316 -212 637 -301 1036 -289 286 9 512 60
736 167 208 100 472 304 526 409 92 176 -44 385 -252 385 -83 0 -133 -23 -225
-100 -250 -211 -529 -315 -845 -314 -353 1 -664 157 -857 431 -81 114 -159
301 -186 446 l-6 33 1157 2 1157 3 53 24 c78 35 145 113 167 195 16 57 16 80
7 200 -38 462 -210 842 -510 1128 -197 187 -430 307 -717 368 -132 28 -446 36
-578 15z m439 -544 c300 -62 530 -268 653 -586 33 -83 81 -266 81 -305 0 -7
-314 -10 -955 -10 -525 0 -955 3 -955 8 0 24 43 180 69 251 122 334 387 576
706 644 101 22 290 21 401 -2z"/>
<path d="M26400 13326 c-388 -56 -689 -240 -841 -511 -86 -154 -128 -360 -109
-537 19 -181 82 -318 205 -444 174 -178 389 -280 866 -414 512 -142 695 -232
765 -375 24 -50 26 -63 22 -148 -3 -81 -8 -99 -38 -155 -41 -77 -101 -131
-194 -177 -97 -47 -171 -65 -301 -72 -172 -9 -359 18 -549 78 -108 35 -359
156 -446 215 -143 98 -279 97 -388 -1 -66 -59 -92 -114 -92 -192 0 -120 41
-186 169 -271 241 -159 560 -282 881 -339 183 -32 467 -37 620 -10 473 82 786
322 903 693 86 271 48 566 -97 763 -47 64 -159 169 -233 219 -140 95 -326 173
-618 262 -556 169 -677 218 -785 323 -60 57 -80 104 -80 185 0 93 22 152 82
217 97 106 221 154 420 162 139 6 239 -5 388 -42 125 -32 205 -62 375 -143
162 -77 229 -89 326 -57 77 26 152 103 174 180 29 97 1 199 -74 274 -102 102
-487 246 -802 301 -160 27 -417 35 -549 16z"/>
<path d="M30900 13323 c-106 -7 -296 -34 -410 -59 -203 -45 -485 -145 -546
-193 -78 -61 -122 -176 -104 -267 35 -170 215 -266 383 -205 28 11 97 36 152
56 209 76 433 115 663 115 227 -1 353 -26 510 -101 235 -113 354 -309 376
-616 3 -40 1 -73 -3 -73 -5 0 -57 11 -117 24 -162 37 -368 65 -570 77 -886 54
-1484 -239 -1641 -807 -25 -91 -27 -113 -27 -274 1 -204 15 -275 88 -425 145
-300 437 -505 853 -597 135 -30 521 -33 653 -5 283 60 519 173 697 332 34 30
64 55 67 55 3 0 6 -35 7 -77 0 -43 6 -92 12 -110 52 -141 221 -222 373 -178
95 28 154 79 197 172 l22 48 3 895 c3 939 -1 1084 -39 1260 -145 669 -713
1007 -1599 953z m508 -1744 c128 -13 305 -44 422 -72 l95 -23 0 -199 c-1 -190
-2 -203 -27 -267 -103 -270 -349 -458 -700 -535 -126 -27 -413 -25 -523 5
-273 74 -447 241 -473 455 -11 86 -2 187 23 257 74 208 318 355 648 389 105
11 393 6 535 -10z"/>
<path d="M28650 13293 c-63 -23 -151 -113 -173 -177 -16 -45 -17 -167 -17
-1467 0 -1404 0 -1419 20 -1473 26 -69 85 -130 158 -164 83 -39 194 -38 274 1
70 34 131 101 155 170 17 49 18 129 18 1472 l0 1420 -24 53 c-30 66 -113 144
-177 166 -60 20 -175 20 -234 -1z"/>
<path d="M3950 6635 c0 -3 -101 -382 -225 -844 -124 -462 -225 -844 -225 -850
0 -7 37 -11 108 -11 l107 0 95 358 c112 423 133 475 239 575 85 80 153 109
256 110 109 0 175 -36 217 -118 18 -34 20 -51 15 -135 -5 -77 -24 -160 -100
-440 l-93 -345 105 -3 c57 -1 108 1 112 5 8 9 182 660 199 751 7 34 11 97 8
140 -11 187 -131 313 -328 343 -131 20 -285 -25 -386 -114 -24 -21 -44 -36
-44 -32 0 3 36 142 80 307 44 165 80 302 80 304 0 2 -49 4 -110 4 -60 0 -110
-2 -110 -5z"/>
<path d="M11676 6623 c-3 -10 -104 -389 -226 -843 -121 -454 -223 -831 -225
-838 -4 -10 20 -12 107 -10 l111 3 223 830 c123 457 226 840 229 853 5 22 4
22 -104 22 -96 0 -110 -2 -115 -17z"/>
<path d="M13196 6623 c-3 -10 -44 -166 -92 -348 -48 -181 -89 -332 -91 -335
-3 -3 -13 6 -22 20 -39 60 -118 132 -175 160 -64 32 -175 60 -238 60 -125 0
-301 -66 -407 -153 -302 -251 -373 -724 -145 -976 171 -189 484 -200 700 -25
30 25 54 41 54 37 0 -5 -7 -30 -15 -57 -24 -79 -28 -76 93 -76 l109 0 222 833
c122 457 224 842 227 855 6 22 5 22 -104 22 -97 0 -111 -2 -116 -17z m-474
-668 c62 -22 142 -94 176 -159 25 -47 27 -60 27 -166 -1 -137 -17 -189 -98
-302 -93 -130 -231 -215 -368 -225 -136 -11 -239 45 -298 160 -30 58 -35 80
-39 155 -5 108 14 195 64 294 64 126 193 232 317 258 57 12 161 5 219 -15z"/>
<path d="M22652 5808 c-123 -458 -226 -843 -229 -855 -5 -23 -4 -23 104 -23
l110 0 96 363 c59 219 109 387 128 425 45 93 126 174 216 219 66 33 83 37 151
37 66 0 85 -4 131 -29 79 -43 106 -96 105 -200 -1 -68 -16 -135 -97 -440 -54
-198 -97 -363 -97 -367 0 -5 50 -8 110 -8 61 0 110 3 110 6 0 3 43 167 95 364
52 198 99 390 105 428 25 180 -54 341 -202 407 -167 75 -366 45 -510 -76 -27
-22 -48 -38 -48 -36 0 3 36 139 80 302 44 163 80 301 80 306 0 5 -48 9 -108 9
l-107 0 -223 -832z"/>
<path d="M27925 6628 c-7 -20 -185 -687 -185 -694 0 -3 -20 20 -44 53 -54 71
-97 105 -179 143 -248 115 -570 10 -753 -246 -157 -220 -193 -519 -88 -726 36
-70 132 -169 197 -201 189 -95 397 -70 579 69 l57 44 -20 -67 c-10 -38 -19
-69 -19 -70 0 -2 49 -3 109 -3 96 0 110 2 115 18 22 74 446 1671 446 1680 0
17 -209 17 -215 0z m-449 -688 c72 -35 116 -81 153 -160 36 -77 36 -214 0
-310 -80 -212 -282 -369 -475 -370 -188 0 -306 131 -306 340 0 156 51 289 153
396 135 140 319 181 475 104z"/>
<path d="M14455 6599 c-5 -8 -65 -216 -65 -226 0 -2 55 -3 123 -3 l123 0 30
115 c17 63 28 117 26 120 -10 10 -231 5 -237 -6z"/>
<path d="M3026 6368 c-20 -79 -42 -160 -47 -180 l-10 -38 -83 0 -84 0 -22 -82
c-12 -46 -24 -91 -26 -100 -5 -16 3 -18 76 -18 73 0 81 -2 76 -17 -63 -219
-180 -684 -184 -735 -10 -134 45 -224 161 -267 72 -26 204 -29 289 -5 l58 17
21 71 c11 39 22 79 25 89 2 9 6 26 9 36 6 18 2 18 -62 -5 -115 -40 -234 -29
-263 25 -22 42 -8 121 80 448 50 184 90 336 90 338 0 3 84 6 187 7 l188 3 26
95 25 95 -183 3 c-109 1 -183 6 -183 12 0 5 20 83 45 173 25 90 45 167 45 171
0 3 -49 6 -108 6 l-109 0 -37 -142z"/>
<path d="M5565 6166 c-263 -51 -487 -268 -565 -548 -111 -398 121 -718 520
-718 168 0 325 59 463 172 l27 23 -56 70 c-31 39 -57 72 -59 74 -2 2 -26 -12
-52 -32 -107 -77 -195 -107 -318 -106 -91 0 -152 18 -218 66 -58 40 -106 135
-114 222 l-6 61 461 0 461 0 21 68 c70 226 6 459 -160 575 -101 71 -265 100
-405 73z m223 -202 c92 -38 143 -121 150 -241 l5 -83 -357 0 c-196 0 -356 2
-356 5 0 17 64 128 98 171 47 60 132 120 204 145 68 23 204 25 256 3z"/>
<path d="M9522 6170 c-153 -28 -281 -97 -397 -214 -138 -140 -203 -285 -212
-471 -14 -286 136 -497 403 -565 149 -38 299 -20 449 54 195 96 343 277 395
482 24 93 26 244 5 324 -50 187 -188 325 -375 375 -72 19 -202 26 -268 15z
m180 -201 c156 -33 245 -142 255 -312 7 -103 -8 -177 -54 -270 -71 -141 -214
-252 -361 -279 -75 -14 -179 0 -242 32 -222 113 -227 474 -10 690 124 124 263
170 412 139z"/>
<path d="M15410 6174 c-72 -14 -156 -50 -219 -95 -39 -27 -71 -46 -71 -42 0 5
7 32 14 61 l14 53 -111 -3 -112 -3 -161 -605 -161 -605 105 -3 c58 -1 109 1
112 5 4 4 49 166 100 358 64 244 102 372 127 423 47 95 128 179 218 223 58 28
77 33 143 32 121 0 195 -42 228 -130 30 -77 16 -163 -85 -543 -51 -190 -94
-351 -96 -358 -4 -10 20 -12 107 -10 l111 3 89 335 c101 383 118 460 118 527
0 166 -104 314 -253 358 -55 16 -175 27 -217 19z"/>
<path d="M18648 6170 c-460 -83 -744 -581 -558 -978 39 -83 142 -187 228 -230
230 -114 526 -65 738 121 154 136 254 353 254 550 0 79 -30 201 -67 270 -60
112 -186 210 -321 251 -66 19 -211 28 -274 16z m247 -224 c72 -32 120 -78 152
-144 39 -79 45 -228 14 -329 -35 -117 -121 -231 -226 -298 -84 -54 -140 -70
-240 -70 -78 0 -99 4 -153 29 -122 56 -174 143 -180 304 -5 122 17 207 78 300
72 111 204 209 314 232 66 15 183 3 241 -24z"/>
<path d="M25925 6170 c-75 -16 -150 -50 -209 -95 -33 -24 -62 -43 -64 -41 -3
4 13 71 25 102 5 12 -11 14 -107 12 l-113 -3 -158 -595 c-88 -327 -159 -601
-159 -607 0 -10 28 -13 108 -13 l107 0 93 353 c60 229 105 378 127 425 38 81
122 177 190 217 63 36 150 57 210 49 141 -18 205 -89 205 -227 0 -60 -16 -135
-95 -432 -52 -198 -97 -366 -100 -373 -4 -10 20 -12 107 -10 l112 3 98 370
c110 413 122 487 94 595 -31 122 -123 221 -239 255 -65 19 -179 27 -232 15z"/>
<path d="M11113 6155 c-97 -27 -188 -82 -278 -170 -30 -29 -55 -50 -55 -47 0
4 11 50 25 102 14 52 25 98 25 103 0 4 -49 7 -110 7 -60 0 -110 -2 -110 -4 0
-3 -72 -275 -160 -605 -88 -331 -160 -603 -160 -606 0 -3 50 -5 110 -5 61 0
110 2 110 4 0 24 149 549 172 603 95 230 286 381 504 400 l71 6 26 102 c15 57
27 108 27 114 0 16 -133 13 -197 -4z"/>
<path d="M21612 6145 c-88 -28 -164 -77 -249 -157 l-61 -59 28 111 28 111
-111 -3 -111 -3 -161 -605 -162 -605 105 -3 c58 -1 108 1 112 5 4 4 40 130 79
278 97 365 154 479 297 597 91 75 228 127 336 128 35 0 38 2 48 43 7 23 20 73
31 112 10 38 19 71 19 72 0 2 -35 3 -77 3 -54 -1 -101 -8 -151 -25z"/>
<path d="M24340 6155 c-90 -15 -221 -56 -226 -70 -2 -5 4 -48 14 -95 14 -60
23 -84 33 -83 8 1 55 14 104 29 73 21 113 26 210 27 171 2 244 -25 293 -108
20 -35 22 -50 19 -122 -2 -46 -6 -85 -8 -87 -3 -3 -30 1 -61 10 -91 23 -247
44 -336 44 -244 0 -437 -101 -516 -269 -41 -90 -49 -217 -17 -302 46 -121 154
-199 307 -221 136 -20 298 22 407 105 26 21 49 37 51 37 2 0 -2 -24 -10 -52
-7 -29 -14 -56 -14 -60 0 -5 49 -8 108 -8 l108 0 99 373 c95 357 99 376 100
477 0 93 -3 111 -26 161 -86 182 -334 266 -639 214z m280 -652 c52 -8 99 -17
103 -20 13 -8 -2 -71 -30 -130 -50 -108 -167 -208 -284 -244 -68 -21 -178 -25
-230 -8 -117 40 -160 159 -100 278 69 134 239 173 541 124z"/>
<path d="M7664 5713 c-229 -380 -270 -443 -273 -417 -2 16 -15 214 -30 439
l-26 410 -112 3 c-112 3 -113 2 -112 -20 0 -13 21 -288 47 -613 l47 -590 95
-3 95 -3 265 436 c191 313 267 430 272 417 3 -9 18 -192 33 -407 14 -214 28
-402 31 -417 l6 -28 93 0 93 0 376 609 c207 335 376 612 376 615 0 3 -51 6
-114 6 l-114 0 -256 -422 c-140 -233 -262 -432 -270 -443 -15 -19 -15 -19 -16
8 0 43 -49 755 -56 815 l-5 52 -88 0 -88 0 -269 -447z"/>
<path d="M14340 6146 c0 -3 -72 -273 -160 -601 -88 -328 -160 -601 -160 -606
0 -6 43 -9 107 -7 l108 3 157 580 c86 319 160 592 163 608 l7 27 -111 0 c-61
0 -111 -2 -111 -4z"/>
<path d="M16850 6144 c0 -4 47 -265 105 -580 58 -316 105 -585 105 -598 0 -32
-115 -155 -172 -184 -74 -36 -230 -23 -269 24 -6 8 -15 14 -19 14 -4 0 -33
-37 -65 -81 l-59 -82 30 -23 c40 -33 126 -64 199 -72 160 -19 287 30 417 160
68 68 141 173 524 749 244 369 444 672 444 675 0 2 -56 4 -124 4 l-123 0 -304
-472 -303 -471 -23 129 c-12 71 -48 283 -79 472 l-57 342 -114 0 c-62 0 -113
-3 -113 -6z"/>
<path d="M19711 6118 c-36 -114 -192 -734 -197 -785 -13 -120 28 -245 104
-321 142 -142 403 -145 586 -7 33 24 62 43 64 41 3 -4 -13 -71 -25 -102 -4
-12 13 -14 105 -14 l110 0 11 33 c5 17 74 271 151 562 78 292 148 552 155 578
l14 48 -111 -3 -112 -3 -101 -370 c-58 -211 -113 -393 -129 -424 -34 -66 -122
-161 -182 -196 -159 -93 -348 -54 -400 81 -31 80 -17 173 80 529 48 176 91
335 96 353 l8 32 -108 0 -108 0 -11 -32z"/>
</g>
</svg>
